<?xml version="1.0" encoding="utf-8"?>
<svg version="1.0" xmlns="http://www.w3.org/2000/svg" width="1024.000000pt" height="1024.000000pt" viewBox="0 0 1024.000000 1024.000000" preserveAspectRatio="xMidYMid meet">
  <g transform="translate(0.000000,1024.000000) scale(0.100000,-0.100000)" fill="#000000" stroke="none">
    <path d="M 4652.912 7747.784 C 4511.852 7765.6 987 5930 928 5655 C 897 5511 897 5257 928 5113 C 1002 4770 3686 3045 4510 2961 C 4692 2942 4994 2920 5067 2920 L 5099 2920 L 5341 2924 C 6497.358 2986.229 8884.367 4624.62 9172.645 4796.053 C 9312.673 4879.325 9705.115 5824.066 9196 6115 C 8826.328 6326.249 5201.203 7678.535 4652.912 7747.784 Z M 5048.11 7626.288 L 5095 7553 L 4882 7446 C 4752 7381 4664 7343 4657 7347 C 4650 7352 4590 7396 4525 7446 C 4459 7496 4376 7555 4341 7578 C 4305 7601 4283 7620 4291 7621 C 4298 7621 4573.445 7742.111 4658.445 7749.111 C 4743.445 7756.111 4743.281 7721.455 4823.281 7720.455 L 4964.059 7658.937 L 5048.11 7626.288 Z M 4294 7526 C 4458 7416 4593 7309 4583 7299 C 4574 7290 4312 7168 4203 7123 L 4132 7093 L 4073 7152 C 3983 7245 3899.16 7298.14 3799.16 7366.14 C 3749.16 7400.14 4464.47 7716.344 4626.47 7737.344 C 4722.47 7750.344 4225 7572 4294 7526 Z M 6094 7144 C 5911 7226 6192 7100 6192 7100 L 6094 7144 Z M 5363 7416 C 5468 7364 5564 7315 5574 7307 C 5592 7294 5588 7289 5514 7235 C 5471 7203 5371 7123 5292 7058 C 5167 6953 5147 6940 5132 6951 C 5123 6959 5057 7014 4985 7075 C 4914 7137 4829 7207 4797 7233 C 4766 7259 4740 7283 4741 7287 C 4743 7295 5148 7509 5163 7510 C 5167 7510 5257 7468 5363 7416 Z M 3797.624 7373.542 C 3917.624 7298.542 3844 7275 3962 7161 L 4061 7066 L 4028 7054 C 3909 7008 3618 6907 3578 6898 L 3530 6887 L 3355.303 7001.569 C 3243.303 7119.569 3749.624 7403.542 3797.624 7373.542 Z M 6268 7073 L 6810 6886 L 6268 7073 Z M 2849 6805 C 2747 6902 3297.346 7128.933 3405.346 7018.933 C 3457.346 6966.933 3452 6868 3449 6866 C 3446 6863 3327 6832 3185 6796 L 2925 6732 L 2849 6805 Z M 5880 7165 C 5982 7118 6082 7072 6103 7062 L 6142 7044 L 6093 6991 C 6067 6961 5981 6858 5903 6761 L 5761 6585 L 5783 6562 L 5805 6539 L 5835 6572 C 5851 6591 5920 6673 5987 6755 C 6054 6838 6133 6931 6162 6964 L 6215 7022 L 6340 6972 C 6409 6945 6531 6901 6611 6875 L 6757 6826 L 6673 6721 C 6627 6663 6533 6531 6463 6428 C 6394 6324 6334 6240 6329 6240 C 6313 6240 6045 6347 5982 6379 C 5948 6396 5918 6410 5916 6410 C 5910 6410 5931 6351 5945 6329 C 5955 6314 6215 6199 6273 6185 C 6288 6181 6300 6177 6300 6175 C 6300 6173 6284 6149 6265 6120 C 6246 6091 6230 6065 6230 6061 C 6230 6048 6283 6028 6289 6038 C 6292 6043 6310 6070 6329 6098 C 6347 6127 6364 6150 6366 6150 C 6368 6150 6437 6130 6518 6106 C 6599 6082 6710 6052 6765 6040 C 6820 6027 6867 6016 6868 6014 C 6872 6011 6849 5976 6677 5723 C 6570 5566 6560 5546 6560 5505 C 6560 5464 6562 5461 6578 5471 C 6587 5477 6623 5523 6657 5573 C 6915 5957 6943 5995 6969 5994 C 6995 5993 7354 5943 7397 5934 C 7418 5930 7415 5924 7357 5852 C 7323 5810 7218 5672 7125 5546 L 6955 5318 L 6820 5324 C 6746 5327 6656 5336 6621 5345 C 6569 5358 6555 5358 6548 5348 C 6532 5322 6540 5302 6572 5291 C 6600 5281 6775 5256 6869 5248 L 6902 5245 L 6800 5110 C 6744 5036 6643 4906 6576 4823 C 6476 4696 6451 4670 6429 4670 C 6392 4670 6239 4697 6150 4720 L 6075 4739 L 6053 4718 C 6040 4706 6030 4694 6030 4690 C 6030 4675 6310 4610 6373 4610 C 6388 4610 6400 4607 6400 4604 C 6400 4591 6272 4450 6127 4304 L 5978 4153 L 5935 4161 C 5875 4172 5778 4206 5689 4247 C 5614 4281 5611 4281 5586 4265 C 5572 4255 5563 4243 5567 4238 C 5576 4222 5745 4146 5828 4119 C 5867 4107 5900 4094 5900 4091 C 5900 4085 5753 3974 5713 3949 C 5697 3939 5690 3926 5690 3902 L 5690 3870 L 5730 3890 C 5752 3901 5818 3947 5877 3992 C 5937 4036 5990 4073 5995 4073 C 6001 4073 6065 4072 6139 4072 L 6273 4070 L 6254 4049 C 6224 4016 6093 3908 6006 3846 C 5917 3782 5912 3782 5760 3805 L 5665 3819 L 5642 3794 C 5614 3765 5615 3764 5735 3747 L 5825 3734 L 5777 3712 C 5750 3700 5692 3678 5647 3663 C 5573 3638 5552 3635 5425 3635 C 5348 3635 5267 3639 5245 3643 L 5206 3652 L 5275 3680 C 5314 3695 5364 3716 5387 3727 L 5430 3747 L 5401 3768 C 5373 3789 5372 3789 5334 3770 C 5267 3737 5147 3698 5095 3693 C 5049 3688 5035 3693 4910 3757 C 4761 3832 4675 3887 4556 3982 L 4478 4044 L 4561 4066 C 4655 4089 4793 4134 4858 4161 L 4901 4180 L 4982 4123 L 5063 4066 L 5056 4111 C 5052 4139 5041 4161 5027 4172 C 5015 4181 4996 4195 4986 4203 C 4968 4216 4969 4219 5011 4247 C 5045 4271 5058 4287 5066 4319 C 5072 4342 5075 4360 5071 4358 C 5068 4356 5032 4333 4992 4306 C 4906 4247 4918 4244 4776 4366 C 4721 4413 4652 4462 4623 4476 C 4593 4490 4549 4518 4524 4537 C 4499 4556 4476 4570 4474 4567 C 4468 4561 4685 4353 4768 4285 C 4821 4241 4836 4224 4826 4218 C 4789 4197 4595 4139 4512 4124 C 4433 4110 4415 4109 4394 4120 C 4363 4137 4129 4377 4032 4490 L 3960 4575 L 4070 4593 C 4131 4603 4215 4621 4258 4633 L 4335 4655 L 4338 4699 C 4340 4728 4336 4748 4325 4760 C 4316 4770 4300 4800 4290 4828 C 4279 4855 4229 4934 4179 5003 L 4086 5128 L 4061 5112 C 4047 5103 4033 5095 4031 5094 C 4026 5090 4198 4872 4271 4789 L 4329 4723 L 4278 4706 C 4211 4685 4052 4654 3969 4646 L 3903 4640 L 3843 4712 C 3791 4775 3579 5055 3482 5190 L 3449 5235 L 3539 5241 C 3713 5254 3728 5258 3735 5292 C 3739 5308 3740 5323 3738 5325 C 3737 5326 3709 5324 3677 5320 C 3645 5315 3571 5309 3512 5305 L 3404 5298 L 3366 5356 C 3335 5403 3037 5803 2957 5906 C 2937 5932 2924 5928 3140 5956 C 3208 5964 3294 5977 3330 5985 C 3366 5993 3398 5996 3401 5992 C 3405 5988 3454 5915 3510 5830 C 3589 5711 3757 5475 3786 5441 C 3788 5438 3801 5447 3815 5460 C 3839 5483 3840 5484 3822 5504 C 3772 5561 3466 6009 3473 6016 C 3474 6018 3527 6030 3590 6044 C 3653 6058 3765 6089 3837 6112 C 3910 6135 3971 6152 3973 6149 C 3975 6147 4005 6105 4040 6055 C 4075 6006 4123 5941 4148 5912 L 4193 5859 L 4216 5881 L 4239 5903 L 4176 5984 C 4104 6077 4035 6179 4041 6184 C 4043 6186 4113 6215 4195 6249 C 4278 6283 4398 6341 4464 6376 C 4529 6412 4586 6438 4590 6433 C 4595 6429 4614 6406 4633 6383 L 4668 6341 L 4690 6365 L 4712 6389 L 4676 6433 L 4640 6477 L 4712 6525 C 4752 6552 4856 6628 4943 6694 C 5030 6761 5112 6823 5124 6832 C 5146 6849 5149 6848 5208 6804 C 5265 6762 5272 6759 5322 6762 L 5375 6765 L 5294 6825 C 5250 6858 5212 6888 5211 6893 C 5209 6903 5409 7069 5559 7182 C 5632 7236 5679 7265 5685 7260 C 5691 7255 5779 7212 5880 7165 Z M 4702 7218 C 4727 7200 4815 7128 4896 7058 C 4978 6989 5056 6923 5068 6913 L 5092 6894 L 4969 6800 C 4836 6697 4663 6572 4620 6547 L 4593 6531 L 4449 6713 C 4370 6813 4277 6928 4242 6968 C 4181 7038 4180 7040 4202 7049 C 4248 7067 4524 7191 4578 7220 C 4610 7236 4640 7249 4646 7250 C 4652 7250 4677 7235 4702 7218 Z M 2323 6589 C 2323 6589 2675 6870 2770 6782 L 2845 6713 L 2633 6662 C 2517 6633 2400 6605 2373 6600 L 2323 6589 Z M 4162 6953 C 4192 6921 4277 6819 4350 6725 C 4423 6632 4494 6543 4508 6527 C 4524 6510 4530 6496 4524 6491 C 4483 6451 4002 6232 3991 6248 C 3988 6253 3943 6323 3891 6405 C 3839 6486 3749 6615 3690 6690 L 3583 6827 L 3684 6858 C 3740 6875 3855 6916 3940 6949 C 4025 6982 4097 7009 4100 7009 C 4103 7010 4131 6984 4162 6953 Z M 2087 6523 C 2008 6500 2232 6565 2232 6565 L 2087 6523 Z M 3563 6739 C 3680 6596 3729 6528 3826 6377 L 3930 6216 L 3897 6202 C 3809 6165 3436 6069 3426 6081 C 3425 6083 3384 6143 3337 6213 C 3229 6372 3098 6548 3035 6618 C 3009 6647 2989 6672 2991 6674 C 2993 6676 3067 6694 3155 6714 C 3243 6734 3351 6761 3395 6774 C 3439 6787 3484 6798 3495 6798 C 3508 6799 3533 6777 3563 6739 Z M 6969 6765 C 7038 6746 7154 6717 7225 6700 C 7297 6683 7361 6667 7369 6665 C 7378 6661 7371 6648 7345 6622 C 7297 6574 7106 6336 6997 6189 L 6911 6073 L 6718 6121 C 6525 6170 6410 6206 6410 6219 C 6410 6223 6465 6310 6533 6411 C 6648 6585 6814 6799 6834 6800 C 6839 6800 6900 6784 6969 6765 Z M 8127 6550 C 8113 6562 8623 6377 8623 6377 L 8459 6437 C 8369 6469 8259 6507 8215 6520 C 8171 6533 8131 6547 8127 6550 Z M 2962 6593 C 3053 6499 3361 6077 3347 6064 C 3338 6055 3190 6031 3040 6015 L 2886 5997 L 2850 6041 C 2760 6152 2569 6359 2484 6438 C 2428 6489 2394 6527 2402 6529 C 2435 6541 2867 6648 2885 6649 C 2898 6650 2928 6628 2962 6593 Z M 7738 6575 C 7855 6546 7954 6520 7957 6516 C 7961 6512 7959 6506 7953 6502 C 7912 6476 7630 6184 7513 6046 L 7472 5997 L 7298 6019 C 7203 6031 7095 6047 7058 6053 L 6990 6065 L 7092 6200 C 7206 6352 7257 6414 7374 6547 C 7469 6656 7423 6652 7738 6575 Z M 2500 6321 C 2675 6147 2806 6003 2798 5995 C 2795 5992 2678 5978 2537 5964 L 2281 5937 L 2203 6007 C 2105 6095 1919 6245 1840 6301 C 1807 6324 1781 6345 1783 6347 C 1794 6357 2029 6435 2152 6469 C 2260 6498 2300 6505 2314 6498 C 2325 6492 2408 6413 2500 6321 Z M 8251 6434 C 8330 6409 8430 6375 8472 6358 L 8550 6329 L 8432 6245 C 8368 6198 8254 6110 8180 6048 L 8045 5935 L 7807 5961 C 7676 5976 7567 5990 7564 5992 C 7556 6001 7787 6255 7910 6373 C 8055 6512 8025 6507 8251 6434 Z M 1806 6237 C 2009 6092 2188 5940 2168 5929 C 2161 5926 2117 5917 2070 5911 C 1951 5894 1763 5853 1696 5830 L 1640 5811 L 1528 5871 C 1397 5940 1295.797 5969.894 1256.797 5978.894 C 1241.797 5982.894 1242.173 6004.296 1242.173 6008.296 C 1242.173 6020.296 1463.357 6161.397 1575.357 6213.397 C 1724.357 6282.397 1673 6309 1690 6309 C 1698 6309 1750 6277 1806 6237 Z M 8764 6234 C 8890 6178 9094 6069 9118 6046 C 9129 6035 9119 6029 9068 6010 C 8974 5976 8817 5903 8717 5848 L 8630 5798 L 8552 5824 C 8438 5861 8378 5876 8251 5901 L 8137 5923 L 8186 5967 C 8305 6072 8602 6289 8628 6290 C 8635 6290 8696 6265 8764 6234 Z M 1399 5859 C 1478 5820 1541 5787 1539 5785 C 1537 5783 1488 5763 1430 5740 C 1307 5691 1119 5598 1037 5546 L 979 5508 L 985 5557 C 999 5656 1033 5788 1071 5886 L 1276.799 5999.235 L 1271.864 5989.92 C 1311.864 5973.92 1320 5897 1399 5859 Z M 9218 5878 C 9254 5759 9280 5621 9280 5544 L 9280 5491 L 9183 5552 C 9068 5624 8891 5710 8791 5742 C 8752 5755 8720 5768 8720 5771 C 8720 5784 9135 5972 9181 5979 C 9184 5980 9201 5934 9218 5878 Z M 3007 5732 C 3179 5506 3321 5307 3315 5302 C 3313 5300 3215 5301 3098 5305 L 2884 5312 L 2794 5413 C 2745 5469 2627 5594 2531 5692 C 2435 5790 2359 5872 2361 5874 C 2367 5880 2746 5918 2810 5919 L 2865 5920 L 3007 5732 Z M 7755 5899 C 7876 5887 7976 5876 7978 5874 C 7980 5873 7901 5792 7803 5693 C 7705 5595 7589 5473 7546 5423 C 7486 5353 7459 5329 7436 5325 C 7419 5322 7323 5320 7224 5322 L 7043 5325 L 7199 5536 C 7426 5842 7489 5920 7514 5920 C 7526 5920 7634 5911 7755 5899 Z M 2374 5752 C 2494 5634 2656 5468 2738 5377 L 2781 5330 L 2536 5335 L 2290 5340 L 2158 5445 C 2085 5503 1957 5597 1873 5653 C 1789 5709 1721 5758 1720 5761 C 1719 5776 1910 5818 2120 5849 C 2189 5860 2247 5869 2249 5869 C 2252 5870 2308 5817 2374 5752 Z M 8201 5840 C 8309 5820 8471 5780 8527 5759 C 8552 5750 8551 5748 8484 5703 C 8367 5625 8192 5492 8064 5384 L 8012 5340 L 7786 5338 C 7662 5336 7560 5338 7560 5342 C 7560 5354 8062 5860 8074 5860 C 8081 5860 8138 5851 8201 5840 Z M 1776 5639 C 1958 5515 2190 5342 2190 5329 C 2190 5326 2133 5318 2063 5312 C 1922 5298 1742 5263 1665 5233 L 1615 5213 L 1481 5283 C 1408 5322 1282 5381 1202 5416 L 1057 5479 L 1091 5500 C 1200 5568 1567 5734 1621 5739 C 1624 5740 1694 5695 1776 5639 Z M 8781 5674 C 8959 5604 9231 5457 9200 5446 C 9192 5444 9154 5432 9115 5419 C 9018 5388 8833 5308 8722 5249 L 8628 5199 L 8537 5233 C 8439 5270 8300 5304 8210 5315 C 8087 5329 8085 5320 8233 5436 C 8305 5494 8426 5582 8500 5631 C 8653 5734 8636 5731 8781 5674 Z M 1092 5390 C 1193 5350 1525 5191 1518 5186 C 1517 5184 1454 5157 1380 5126 C 1306 5094 1199 5044 1144 5014 L 1042 4960 L 1021 5047 C 1010 5096 996 5164 990 5200 C 980 5266 976 5430 985 5430 C 987 5430 1036 5412 1092 5390 Z M 9266 5245 C 9249 5149 9211 5006 9185 4944 L 9170 4909 L 9128 4938 C 9071 4976 8906 5068 8798 5121 L 8711 5164 L 8752 5189 C 8824 5231 9010 5311 9145 5356 L 9275 5400 L 9278 5368 C 9280 5351 9274 5295 9266 5245 Z M 2761 5261 L 2847 5255 L 3035 5040 C 3138 4922 3243 4804 3268 4778 C 3293 4752 3312 4728 3309 4725 C 3306 4723 3225 4736 3129 4755 C 3033 4774 2945 4790 2933 4790 C 2918 4790 2866 4830 2788 4902 C 2544 5124 2464 5196 2421 5233 L 2376 5270 L 2526 5269 C 2608 5268 2714 5265 2761 5261 Z M 7909 5247 C 7835 5184 7546 4926 7484 4868 L 7413 4800 L 7216 4762 C 7108 4741 7020 4725 7020 4727 C 7020 4729 7104 4826 7208 4943 C 7311 5060 7417 5181 7444 5213 L 7492 5270 L 7714 5270 L 7935 5269 L 7909 5247 Z M 8195 5245 C 8308 5228 8460 5192 8518 5167 L 8551 5153 L 8433 5080 C 8368 5040 8243 4957 8155 4896 C 8067 4836 7988 4786 7980 4787 C 7972 4787 7896 4792 7813 4799 C 7729 4805 7625 4807 7583 4804 L 7505 4798 L 7540 4831 C 7575 4863 7922 5176 7989 5237 C 8016 5261 8032 5267 8055 5264 C 8071 5262 8135 5253 8195 5245 Z M 2438 5127 C 2524 5053 2639 4952 2692 4902 L 2790 4810 L 2631 4816 C 2530 4821 2434 4819 2364 4811 L 2255 4799 L 2080 4915 C 1984 4979 1857 5061 1798 5096 C 1738 5132 1690 5165 1690 5170 C 1690 5195 2040 5253 2218 5258 L 2280 5260 L 2438 5127 Z M 7363 5217 C 7342 5193 7233 5071 7121 4945 C 7010 4818 6911 4710 6901 4703 C 6881 4689 6719 4670 6614 4670 L 6538 4670 L 6578 4718 C 6625 4775 6913 5149 6955 5207 L 6985 5249 L 7140 5252 C 7225 5254 7319 5257 7348 5258 L 7402 5260 L 7363 5217 Z M 3241 5234 L 3368 5228 L 3571 4958 C 3683 4809 3783 4677 3793 4664 C 3808 4644 3809 4640 3797 4640 C 3765 4640 3571 4661 3507 4671 L 3439 4682 L 3298 4843 C 3220 4932 3107 5061 3046 5128 L 2937 5252 L 3026 5246 C 3075 5243 3172 5238 3241 5234 Z M 1729 5058 C 1953 4920 2151 4787 2143 4780 C 2139 4776 2106 4767 2070 4760 C 1979 4742 1736 4663 1670 4631 L 1614 4603 L 1525 4652 C 1475 4679 1354 4742 1255 4791 C 1156 4840 1074 4884 1072 4888 C 1064 4914 1563 5146 1599 5134 C 1607 5132 1665 5097 1729 5058 Z M 8825 5030 C 8986 4949 9142 4852 9137 4837 C 9135 4831 9067 4799 8984 4765 C 8902 4731 8778 4676 8707 4642 C 8637 4608 8576 4580 8571 4580 C 8567 4580 8520 4600 8469 4624 C 8378 4667 8212 4727 8121 4750 L 8078 4761 L 8156 4816 C 8312 4925 8457 5019 8543 5068 C 8647 5127 8629 5130 8825 5030 Z M 2788 4739 L 2884 4728 L 2998 4622 C 3060 4563 3153 4477 3205 4430 C 3256 4383 3299 4342 3299 4339 C 3300 4336 3272 4339 3238 4346 C 3152 4364 2926 4381 2880 4374 C 2844 4368 2834 4373 2698 4472 C 2620 4530 2504 4613 2442 4658 C 2333 4737 2331 4739 2362 4743 C 2434 4752 2696 4749 2788 4739 Z M 7864 4732 L 7912 4725 L 7794 4640 C 7657 4543 7492 4421 7438 4379 C 7402 4350 7399 4350 7253 4346 C 7172 4343 7077 4335 7043 4327 C 7008 4320 6980 4315 6980 4317 C 6980 4319 6997 4335 7017 4353 C 7078 4405 7269 4579 7352 4656 C 7394 4696 7439 4730 7452 4733 C 7489 4740 7810 4739 7864 4732 Z M 2263 4698 C 2470 4554 2729 4366 2725 4362 C 2723 4360 2663 4343 2593 4324 C 2523 4306 2419 4275 2362 4255 L 2259 4220 L 2102 4318 C 2016 4372 1887 4449 1816 4490 L 1687 4564 L 1726 4582 C 1826 4628 2142 4717 2213 4719 C 2224 4720 2246 4710 2263 4698 Z M 3095 4700 C 3128 4694 3211 4674 3279 4656 L 3403 4623 L 3591 4419 C 3694 4307 3777 4214 3775 4212 C 3773 4210 3730 4222 3678 4238 C 3627 4254 3553 4275 3513 4285 L 3442 4302 L 3259 4468 C 2964 4738 2981 4721 3010 4715 C 3024 4713 3062 4706 3095 4700 Z M 7320 4717 C 7320 4715 7212 4615 7079 4494 L 6838 4275 L 6687 4233 C 6603 4209 6529 4190 6521 4190 C 6513 4190 6576 4261 6661 4348 C 6746 4434 6844 4537 6878 4576 C 6942 4648 6942 4648 7013 4659 C 7070 4668 7306 4715 7318 4719 C 7319 4720 7320 4719 7320 4717 Z M 8097 4685 C 8201 4657 8350 4603 8441 4560 L 8502 4531 L 8426 4488 C 8384 4464 8275.354 4369.646 8162.354 4298.646 L 7938 4190 L 7852 4224 C 7757 4261 7533 4330 7506 4330 C 7497 4330 7490 4333 7490 4338 C 7490 4342 7541 4380 7603 4422 C 7689 4482 8005 4707 8005 4709 C 8005 4710 8047 4699 8097 4685 Z M 6752 4533 C 6708 4484 6604 4378 6521 4296 C 6374 4150 6370 4146 6318 4139 C 6254 4130 6148 4128 6100 4136 L 6065 4141 L 6164 4243 C 6218 4299 6312 4401 6373 4470 L 6482 4595 L 6624 4606 C 6701 4612 6780 4617 6799 4618 L 6832 4620 L 6752 4533 Z M 3733 4584 L 3871 4577 L 3927 4511 C 4004 4420 4270 4131 4289 4119 C 4312 4104 4068 4116 3996 4134 C 3950 4145 3928 4158 3888 4196 C 3829 4254 3510 4597 3510 4603 C 3510 4605 3529 4604 3553 4599 C 3576 4595 3657 4588 3733 4584 Z M 3170 4295 C 3387 4264 3370 4271 3536 4138 C 3618 4071 3705 4004 3729 3988 C 3780 3956 3779 3956 3645 3975 C 3590 3983 3509 3990 3465 3990 L 3385 3990 L 3160 4146 C 3036 4232 2933 4303 2931 4306 C 2921 4316 3073 4309 3170 4295 Z M 3012 4167 C 3118 4094 3222 4024 3242 4010 C 3262 3997 3278 3984 3277 3983 C 3275 3982 3239 3974 3195 3965 C 3106 3947 3024 3922 2908 3878 L 2831 3849 L 2598 3998 C 2470 4080 2356 4152 2345 4158 L 2325 4169 L 2345 4176 C 2356 4180 2388 4192 2415 4203 C 2480 4228 2757 4299 2792 4300 C 2810 4300 2880 4258 3012 4167 Z M 7295 4272 C 7289 4267 7206 4210 7110 4145 C 7014 4080 6914 4012 6889 3993 C 6846 3963 6836 3960 6769 3960 C 6728 3960 6657 3953 6610 3945 C 6563 3937 6521 3930 6516 3930 C 6511 3930 6547 3961 6596 3999 C 6645 4037 6725 4102 6774 4143 C 6861 4216 6866 4218 6959 4239 C 7012 4251 7078 4265 7105 4269 C 7172 4281 7306 4282 7295 4272 Z M 7536 4250 C 7667 4217 7860 4152 7860 4140 C 7860 4136 7839 4120 7813 4103 C 7786 4087 7674 4016 7563 3946 L 7360 3818 L 7263 3860 C 7209 3884 7117 3914 7058 3929 C 6998 3943 6950 3957 6951 3960 C 6951 3963 6988 3989 7033 4018 C 7078 4047 7180 4118 7260 4175 C 7340 4232 7408 4279 7411 4280 C 7415 4280 7471 4267 7536 4250 Z M 3741 4150 C 3890 4101 3892 4100 3983 4022 C 4034 3979 4110 3916 4154 3882 C 4197 3848 4229 3820 4224 3820 C 4219 3820 4152 3841 4075 3866 C 3924 3916 3912 3924 3683 4104 C 3592 4176 3568 4200 3585 4200 C 3588 4200 3658 4178 3741 4150 Z M 6699 4157 C 6421 3936 6343 3885 6237 3851 C 6132 3818 6060 3803 6075 3818 C 6138 3878 6409 4092 6429 4097 C 6443 4100 6509 4118 6575 4135 C 6680 4163 6714 4168 6699 4157 Z M 4257 4045 L 4379 4040 L 4487 3953 C 4624 3844 4744 3766 4853 3715 C 4901 3693 4939 3672 4940 3669 C 4940 3662 4842 3675 4740 3695 C 4699 3703 4621 3716 4568 3724 C 4472 3738 4468 3740 4356 3814 C 4236 3893 4112 3989 4070 4035 L 4045 4063 L 4090 4056 C 4115 4053 4190 4048 4257 4045 Z M 3675 3908 C 3826 3883 3887 3862 3991 3801 C 4047 3767 4100 3740 4107 3740 C 4114 3740 4120 3737 4120 3733 C 4120 3728 4074 3725 4018 3725 C 3961 3725 3897 3722 3875 3718 C 3837 3711 3828 3715 3672 3814 C 3583 3871 3506 3920 3502 3925 C 3494 3933 3578 3925 3675 3908 Z M 3503 3843 C 3572 3800 3657 3748 3691 3727 L 3754 3688 L 3640 3646 C 3577 3622 3489 3586 3444 3565 L 3363 3528 L 3154 3655 C 3039 3726 2937 3788 2927 3795 C 2912 3806 2921 3811 2997 3839 C 3102 3876 3279 3918 3336 3919 C 3371 3920 3398 3907 3503 3843 Z M 6715 3876 C 6704 3869 6628 3824 6547 3776 L 6399 3689 L 6259 3696 L 6119 3703 L 6221 3757 C 6362 3833 6551 3887 6685 3889 C 6729 3890 6732 3889 6715 3876 Z M 6988 3874 C 7068 3858 7174 3825 7249 3793 L 7293 3774 L 7061 3637 C 6934 3562 6827 3500 6824 3500 C 6821 3500 6757 3531 6682 3568 C 6607 3606 6529 3642 6510 3649 L 6475 3661 L 6528 3693 C 6558 3711 6639 3762 6708 3807 C 6851 3898 6860 3900 6988 3874 Z M 4290 3635 C 4353 3622 4463 3596 4533 3577 L 4661 3543 L 4598 3531 C 4563 3524 4493 3508 4442 3495 L 4350 3470 L 4212 3533 C 4137 3568 4050 3611 4020 3628 L 3965 3660 L 4070 3660 C 4143 3660 4210 3652 4290 3635 Z M 3887 3625 C 3912 3608 4196 3465 4237 3449 C 4264 3439 4259 3436 4120 3366 C 4040 3326 3957 3283 3935 3271 L 3895 3248 L 3673 3366 C 3551 3431 3453 3487 3456 3491 C 3462 3502 3674 3590 3755 3616 C 3840 3643 3859 3644 3887 3625 Z M 4810 3620 C 4851 3614 4935 3610 4997 3611 C 5058 3611 5123 3607 5142 3602 C 5160 3596 5202 3586 5235 3579 L 5295 3566 L 5240 3559 C 5080 3539 4921 3553 4762 3602 C 4691 3623 4652 3647 4705 3636 C 4722 3633 4769 3625 4810 3620 Z M 6272 3629 C 6268 3625 6188 3584 6095 3537 L 5924 3451 L 5850 3474 C 5809 3486 5741 3505 5700 3515 C 5625 3533 5625 3534 5655 3546 C 5688 3559 5982 3626 6040 3633 C 6094 3640 6281 3637 6272 3629 Z M 6532 3564 C 6583 3544 6653 3512 6688 3493 C 6763 3451 6781 3469 6527 3331 L 6339.812 3244.725 L 6272 3271 C 6235 3295 6161 3337 6107 3366 L 6008 3417 L 6192 3514 C 6401 3623 6388 3622 6532 3564 Z M 4955 3475 C 5003 3461 5054 3444 5067 3436 C 5091 3424 5088 3422 4983 3375 C 4924 3349 4849 3314 4818 3299 L 4761 3270 L 4608 3348 C 4428 3438 4446 3429 4451 3434 C 4465 3448 4710 3487 4851 3499 C 4860 3499 4907 3489 4955 3475 Z M 5675 3456 C 5730 3442 5788 3426 5804 3420 L 5834 3409 L 5804 3391 C 5788 3382 5728 3349 5670 3318 L 5565 3262 L 5435 3336 C 5364 3377 5300 3410 5293 3410 C 5286 3410 5280 3414 5280 3419 C 5280 3423 5315 3437 5358 3449 C 5400 3462 5446 3476 5460 3480 C 5493 3492 5553 3485 5675 3456 Z M 4548 3303 C 4620 3267 4682 3235 4685 3230 C 4687 3226 4652 3200 4607 3172 C 4562 3143 4500 3102 4469 3080 L 4413 3039 L 4319 3050 C 4240 3059 4216 3067 4170 3096 C 4140 3115 4085 3147 4048 3168 C 4010 3188 3980 3208 3980 3213 C 3980 3217 4061 3260 4161 3309 L 4341 3398 L 4378 3383 C 4398 3375 4475 3339 4548 3303 Z M 5278 3344 C 5393 3283 5490 3227 5490 3220 C 5490 3217 5416 3174 5325 3124 L 5160 3032 L 5003 3127 C 4916 3179 4843 3224 4841 3225 C 4834 3233 5157 3388 5183 3390 C 5187 3390 5230 3369 5278 3344 Z M 6125 3279 C 6226 3223 6284.383 3169.475 6269.383 3162.475 C 6263.383 3160.475 6218.425 3147.327 6161.425 3113.327 C 6069.425 3060.327 6025 3056 5955 3046 L 5875 3035 L 5800 3095 C 5759 3128 5704 3169 5678 3185 C 5651 3202 5630 3217 5630 3220 C 5630 3223 5697 3259 5777 3301 L 5924 3378 L 5980 3353 C 6010 3340 6076 3307 6125 3279 Z M 4890 3115 C 4959 3073 5026 3030 5040 3020 L 5065 3000 L 4970 3000 C 4876 3000 4649 3014 4557 3026 L 4510 3032 L 4612 3097 C 4669 3133 4724 3168 4735 3176 C 4746 3183 4757 3189 4760 3189 C 4763 3190 4821 3156 4890 3115 Z M 5641 3127 C 5682 3098 5730 3063 5748 3050 L 5782 3025 L 5733 3018 C 5660 3007 5254 2996 5262 3005 C 5271 3015 5553 3179 5561 3180 C 5565 3180 5601 3156 5641 3127 Z"/>
    <path d="M5221 6644 c-133 -36 -136 -38 -766 -672 -324 -327 -600 -610 -612 -630 -26 -42 -30 -107 -9 -135 7 -9 27 -22 45 -28 60 -21 92 6 502 417 531 533 778 768 842 801 45 24 64 28 137 28 69 0 94 -4 132 -23 56 -28 122 -92 149 -143 26 -52 38 -138 27 -204 -19 -121 -26 -130 -448 -550 -215 -214 -398 -402 -406 -417 -24 -46 -18 -86 20 -124 27 -27 42 -34 73 -34 37 -1 48 10 469 433 337 339 439 437 469 447 58 19 170 8 230 -23 132 -67 202 -229 160 -373 -9 -32 -26 -75 -37 -94 -12 -19 -236 -251 -498 -515 -279 -280 -488 -499 -503 -525 -36 -63 -43 -110 -23 -152 9 -19 75 -96 147 -171 105 -110 137 -138 165 -143 69 -13 124 34 124 106 0 47 -13 66 -121 175 l-100 101 83 79 c46 44 266 260 490 481 397 393 407 404 447 486 28 57 44 106 52 159 46 318 -211 629 -521 629 l-55 0 0 98 c0 119 -18 175 -86 277 -83 123 -195 207 -324 241 -65 18 -185 17 -254 -2z"/>
    <path d="M5294 6185 c-29 -13 -820 -799 -870 -865 -57 -76 -77 -137 -82 -250 -4 -93 -1 -114 20 -176 121 -348 523 -490 829 -293 71 46 251 220 600 581 241 248 249 258 249 296 0 73 -65 125 -127 101 -15 -5 -206 -187 -423 -403 -456 -453 -453 -451 -600 -451 -76 0 -93 4 -152 33 -118 58 -188 167 -188 290 0 107 9 119 450 557 221 220 408 412 416 427 20 38 18 75 -7 114 -11 19 -21 34 -22 34 -1 0 -16 4 -33 9 -21 6 -40 5 -60 -4z"/>
  </g>
</svg>